<?xml version="1.0" encoding="UTF-8"?>
<svg enable-background="new 0 0 500 500" version="1.1" viewBox="0 0 500 500" xml:space="preserve" xmlns="http://www.w3.org/2000/svg">
	<path fill="#cecece" d="m250.3 240.3c42 0 76.1-34.1 76.1-76.1s-34.1-76.1-76.1-76.1-76.1 34.1-76.1 76.1 34.2 76.1 76.1 76.1zm0-134.2c32 0 58.1 26.1 58.1 58.1s-26.1 58.1-58.1 58.1-58.1-26.1-58.1-58.1 26.1-58.1 58.1-58.1z"/>
	<path fill="#cecece" d="m432 421.8c42.2-44.8 68.1-105.1 68.1-171.5 0-138.1-111.9-250-250-250s-250 111.9-250 250c0 66.6 26.1 127.1 68.5 172v0.3h0.4c45.5 47.9 109.9 77.7 181.1 77.7s135.6-29.8 181.1-77.7h0.7c0.1-0.3 0.1-0.6 0.1-0.8zm-395.7-81.3c-12.1-28.6-18.2-59-18.2-90.3s6.1-61.7 18.2-90.3c11.7-27.6 28.4-52.4 49.7-73.7s46.1-38 73.7-49.7c28.6-12.1 59-18.2 90.3-18.2s61.7 6.1 90.3 18.2c27.6 11.7 52.4 28.4 73.7 49.7s38 46.1 49.7 73.7c12.1 28.6 18.2 59 18.2 90.3s-6.1 61.7-18.2 90.3c-8.7 20.6-20.2 39.6-34.3 56.7-11.9-62.6-67-110-133-110h-92.4c-66.1 0-121.3 47.7-133 110.5-14.3-17.3-25.9-36.4-34.7-57.2zm213.8 141.7c-31.3 0-61.7-6.1-90.3-18.2-27.3-11.5-51.8-28-72.9-48.9 3.9-61.2 54.9-109.9 117.1-109.9h92.7c62.1 0 113 48.4 117.1 109.5-21.2 21.1-45.9 37.7-73.3 49.3-28.7 12.1-59 18.2-90.4 18.2z"/>
</svg>
